<!--?xml version="1.0" standalone="no"?-->

<svg version="1.0" xmlns="http://www.w3.org/2000/svg" width="300.000000pt" height="146.000000pt" viewBox="0 0 300.000000 146.000000" preserveAspectRatio="xMidYMid meet">
<g transform="translate(0.000000,146.000000) scale(0.100000,-0.100000)" fill="#121212" stroke="none">
<path class="node" id="node1" d="M1151 1439 c-92 -11 -188 -35 -218 -55 -32 -20 -29 -44 11 -90 62
-72 79 -117 72 -183 -10 -88 3 -92 95 -30 138 95 245 140 377 160 99 15 174 3
283 -46 88 -40 119 -40 136 -3 15 34 -1 86 -38 124 -49 50 -199 113 -301 124
-99 12 -313 11 -417 -1z m464 -59 c57 -29 71 -61 34 -81 -12 -6 -79 -15 -148
-19 -139 -8 -202 -27 -314 -96 -31 -19 -65 -34 -75 -32 -9 2 -27 26 -40 53
-13 27 -35 62 -48 78 -13 16 -24 35 -24 43 0 23 40 41 125 58 116 22 135 24
295 22 133 -1 149 -3 195 -26z"></path>
<path class="node" id="node2" d="M1270 1341 c0 -23 25 -46 34 -32 7 11 -14 51 -26 51 -5 0 -8 -8 -8
-19z"></path>
<path class="node" id="node3" d="M1430 1346 c0 -9 5 -16 10 -16 6 0 10 4 10 9 0 6 -4 13 -10 16 -5 3
-10 -1 -10 -9z"></path>
<path class="node" id="node4" d="M1518 1353 c-33 -8 -19 -23 21 -23 42 0 62 14 35 24 -17 6 -29 6 -56
-1z"></path>
<path class="node" id="node5" d="M1185 1340 c-9 -15 22 -60 40 -60 21 0 19 8 -9 41 -15 17 -27 25 -31
19z"></path>
<path class="node" id="node6" d="M1356 1335 c4 -8 10 -15 15 -15 4 0 6 7 3 15 -4 8 -10 15 -15 15 -4
0 -6 -7 -3 -15z"></path>
<path class="node" id="node7" d="M1100 1319 c0 -20 38 -79 50 -79 26 0 6 49 -32 79 -15 11 -18 11 -18
0z"></path>
<path class="node" id="node8" d="M1596 1134 c-11 -29 -6 -91 13 -145 25 -74 36 -197 20 -232 -10 -21
-19 -27 -44 -27 -58 0 -73 23 -91 140 -26 170 -57 250 -97 250 -17 0 -12 -42
14 -132 39 -138 47 -209 25 -243 -22 -33 -60 -33 -82 0 -12 19 -43 177 -44
230 0 6 -9 25 -21 44 -18 30 -22 32 -36 19 -13 -14 -13 -24 1 -100 9 -47 16
-108 16 -136 0 -44 -4 -54 -24 -67 -20 -13 -29 -14 -46 -5 -31 16 -40 51 -40
148 0 108 -9 126 -44 92 -24 -22 -26 -30 -26 -115 0 -78 -3 -96 -21 -119 -33
-42 -55 -34 -88 32 -52 103 -87 107 -83 9 3 -74 -5 -81 -89 -87 -54 -4 -75 -9
-83 -22 -19 -31 13 -51 81 -49 87 1 107 -13 113 -79 4 -47 8 -55 25 -55 15 0
24 13 38 55 22 67 29 74 60 66 34 -8 50 -57 37 -111 -20 -84 -9 -145 27 -145
22 0 33 37 39 142 7 110 19 138 59 138 56 0 68 -63 35 -182 -30 -109 -25 -142
19 -119 27 15 41 63 41 140 0 116 51 176 99 116 33 -43 35 -82 8 -170 -36
-115 -39 -133 -27 -155 30 -57 92 62 127 245 25 134 25 135 53 135 31 0 54
-23 64 -64 4 -17 -2 -88 -15 -168 -20 -130 -21 -139 -4 -164 16 -24 17 -25 36
-8 40 36 79 194 79 318 0 47 4 57 26 75 47 37 96 21 110 -35 4 -14 -3 -66 -15
-117 -22 -97 -27 -172 -12 -181 17 -11 70 45 80 82 5 20 12 78 16 127 8 108
24 152 59 161 34 8 64 -3 72 -28 3 -11 1 -47 -6 -79 -14 -65 -9 -89 18 -89 27
0 45 24 87 112 35 74 60 98 86 82 7 -4 9 -22 6 -44 -3 -21 0 -43 6 -49 19 -19
55 -12 76 15 37 46 26 197 -17 247 -22 25 -56 18 -60 -13 -6 -54 -13 -70 -30
-70 -25 0 -57 36 -80 91 -18 42 -62 89 -84 89 -20 0 -20 -36 0 -71 28 -49 28
-65 -3 -85 -20 -13 -30 -14 -61 -4 -43 15 -69 65 -85 163 -13 79 -29 111 -56
115 -33 5 -37 -28 -13 -113 25 -88 24 -172 -2 -189 -23 -14 -66 2 -90 35 -12
16 -25 61 -34 120 -7 52 -18 117 -24 146 -16 75 -77 132 -94 87z"></path>
<path class="node" id="node9" d="M47 1109 c-41 -31 -53 -85 -34 -150 9 -30 23 -96 31 -148 14 -84 14
-108 0 -235 -33 -295 14 -411 142 -350 22 11 49 40 80 88 63 96 84 117 194
196 144 103 172 142 146 203 -11 26 -33 43 -117 86 -126 67 -167 103 -235 209
-76 117 -145 151 -207 101z m126 -106 c68 -72 117 -245 117 -418 0 -110 -2
-126 -26 -173 -43 -87 -111 -127 -145 -85 -10 12 -13 37 -9 92 11 175 4 323
-18 401 -12 41 -22 97 -22 124 0 84 51 113 103 59z m267 -235 c20 -18 51 -41
68 -50 25 -13 32 -24 32 -47 0 -24 -12 -39 -61 -80 -33 -28 -67 -51 -74 -51
-14 0 -45 26 -45 38 0 4 -3 46 -6 93 -10 131 15 159 86 97z"></path>
<path class="node" id="node10" d="M137 944 c-8 -8 1 -24 14 -24 5 0 9 7 9 15 0 15 -12 20 -23 9z"></path>
<path class="node" id="node11" d="M157 873 c-4 -3 -7 -12 -7 -20 0 -15 26 -18 34 -4 7 11 -18 33 -27
24z"></path>
<path class="node" id="node12" d="M174 789 c-10 -17 13 -36 27 -22 12 12 4 33 -11 33 -5 0 -12 -5 -16
-11z"></path>
<path class="node" id="node13" d="M184 719 c-8 -14 11 -33 25 -25 16 10 13 36 -3 36 -8 0 -18 -5 -22
-11z"></path>
<path class="node" id="node14" d="M190 639 c0 -14 5 -19 17 -17 26 5 29 38 4 38 -15 0 -21 -6 -21 -21z"></path>
<path class="node" id="node15" d="M187 584 c-9 -10 4 -34 19 -34 8 0 14 9 14 20 0 19 -19 27 -33 14z"></path>
<path class="node" id="node16" d="M180 511 c0 -12 6 -21 16 -21 9 0 14 7 12 17 -5 25 -28 28 -28 4z"></path>
<path class="node" id="node17" d="M160 440 c0 -5 5 -10 10 -10 6 0 10 5 10 10 0 6 -4 10 -10 10 -5 0
-10 -4 -10 -10z"></path>
<path class="node" id="node18" d="M393 743 c-21 -7 -15 -33 7 -33 11 0 20 6 20 14 0 18 -11 25 -27 19z"></path>
<path class="node" id="node19" d="M464 686 c-4 -10 -2 -22 4 -28 8 -8 13 -7 18 6 4 10 2 22 -4 28 -8 8
-13 7 -18 -6z"></path>
<path class="node" id="node20" d="M406 633 c-12 -12 -6 -33 9 -33 8 0 15 6 15 14 0 17 -14 28 -24 19z"></path>
<path class="node" id="node21" d="M1946 1112 c-10 -16 48 -58 111 -82 32 -12 90 -39 129 -61 110 -60
152 -49 105 27 -15 25 -39 39 -127 73 -111 43 -206 62 -218 43z"></path>
<path class="node" id="node22" d="M2354 995 c-4 -8 1 -25 10 -38 68 -93 92 -153 102 -251 11 -105 -23
-225 -82 -295 -56 -67 -6 -100 98 -65 75 25 303 128 364 166 88 53 144 110
144 145 0 46 -30 75 -153 152 -168 104 -235 138 -333 171 -98 33 -142 38 -150
15z m210 -199 c40 -80 48 -204 16 -254 -30 -49 -56 -40 -53 18 6 125 3 188
-11 229 -21 57 -20 73 2 69 9 -2 30 -29 46 -62z m269 -33 c57 -29 61 -100 7
-128 -16 -8 -52 -15 -81 -15 -45 0 -55 4 -85 34 -38 38 -44 74 -15 100 40 36
113 40 174 9z"></path>
<path class="node" id="node23" d="M2777 754 c-4 -4 -7 -16 -7 -26 0 -13 7 -18 26 -18 21 0 25 4 22 22
-3 23 -27 35 -41 22z"></path>
<path class="node" id="node24" d="M795 941 c-78 -28 -201 -89 -216 -107 -12 -14 -10 -19 11 -36 39 -32
107 -21 167 27 27 21 69 53 96 72 80 59 50 82 -58 44z"></path>
<path class="node" id="node25" d="M623 570 c-31 -13 -29 -33 6 -62 30 -26 53 -36 138 -62 97 -30 113
-11 35 41 -26 17 -67 46 -91 62 -47 33 -54 35 -88 21z"></path>
<path class="node" id="node26" d="M2315 470 c-11 -4 -29 -18 -40 -30 -11 -12 -55 -43 -98 -67 -102 -59
-116 -88 -41 -85 43 2 126 45 171 90 52 51 57 111 8 92z"></path>
<path class="node" id="node27" d="M910 379 c0 -29 53 -75 129 -112 81 -40 95 -60 62 -88 -13 -11 -43
-24 -68 -30 -24 -6 -46 -16 -49 -21 -22 -35 94 -59 190 -39 83 17 176 66 176
91 0 13 -10 24 -27 31 -40 15 -281 137 -325 165 -48 31 -88 32 -88 3z m314
-175 c29 -11 19 -43 -16 -52 -18 -5 -36 -7 -40 -5 -10 5 -10 47 -1 56 8 9 36
9 57 1z"></path>
<path class="node" id="node28" d="M1940 234 c-73 -32 -150 -46 -297 -52 -161 -8 -192 -17 -161 -48 26
-27 122 -29 221 -5 137 33 177 27 177 -26 0 -12 -8 -38 -17 -58 -9 -19 -14
-38 -10 -41 10 -11 95 44 121 79 32 42 58 110 54 139 -4 29 -39 34 -88 12z
m44 -43 c13 -20 -30 -91 -55 -91 -5 0 -9 17 -9 38 0 30 5 41 23 50 28 14 35
14 41 3z"></path>
</g>
<g transform="translate(0.000000,146.000000) scale(0.100000,-0.100000)" fill="#A1A1A1" stroke="none">

<path class="node" id="node30" d="M1240 1403 c-79 -9 -196 -36 -217 -49 -29 -18 -29 -35 1 -71 13 -16
35 -51 48 -78 13 -27 31 -51 40 -53 10 -2 44 13 75 32 112 69 175 88 314 96
69 4 136 13 148 19 37 20 23 52 -34 81 -46 23 -62 25 -195 26 -80 1 -161 0
-180 -3z m58 -63 c16 -26 6 -46 -14 -29 -15 12 -20 49 -6 49 4 0 13 -9 20 -20z
m152 -1 c0 -5 -4 -9 -10 -9 -5 0 -10 7 -10 16 0 8 5 12 10 9 6 -3 10 -10 10
-16z m124 15 c27 -10 7 -24 -35 -24 -40 0 -54 15 -21 23 27 7 39 7 56 1z
m-334 -68 c0 -16 -31 -3 -46 19 -24 37 -7 50 22 16 13 -16 24 -32 24 -35z
m134 49 c3 -8 1 -15 -3 -15 -5 0 -11 7 -15 15 -3 8 -1 15 3 15 5 0 11 -7 15
-15z m-227 -45 c15 -18 17 -50 3 -50 -12 0 -50 59 -50 79 0 11 3 11 18 0 9 -8
22 -21 29 -29z"></path>
<path class="node" id="node31" d="M2500 847 c0 -8 7 -34 16 -58 14 -41 17 -104 11 -229 -3 -58 23 -67
53 -18 32 50 24 174 -16 254 -27 55 -64 84 -64 51z"></path>
<path class="node" id="node32" d="M2706 780 c-72 -22 -85 -73 -32 -126 30 -30 40 -34 85 -34 91 0 140
46 113 105 -20 43 -108 72 -166 55z m112 -48 c3 -18 -1 -22 -22 -22 -19 0 -26
5 -26 18 0 39 43 43 48 4z"></path>
<path class="node" id="node33" d="M1167 203 c-9 -9 -9 -51 1 -56 4 -2 22 0 40 5 52 14 39 58 -17 58
-10 0 -21 -3 -24 -7z"></path>
<path class="node" id="node34" d="M87 1012 c-24 -26 -22 -102 5 -192 22 -78 29 -226 18 -401 -4 -55 -1
-80 9 -92 34 -42 102 -2 145 85 24 47 26 63 26 173 0 134 -18 224 -65 330 -45
102 -99 140 -138 97z m73 -77 c0 -8 -4 -15 -9 -15 -13 0 -22 16 -14 24 11 11
23 6 23 -9z m24 -86 c-8 -14 -34 -11 -34 4 0 8 3 17 7 20 9 9 34 -13 27 -24z
m22 -60 c10 -17 -13 -36 -27 -22 -12 12 -4 33 11 33 5 0 12 -5 16 -11z m14
-73 c0 -8 -5 -18 -11 -22 -14 -8 -33 11 -25 25 10 16 36 13 36 -3z m8 -73 c-5
-26 -38 -29 -38 -4 0 15 6 21 21 21 14 0 19 -5 17 -17z m-8 -73 c0 -23 -25
-27 -33 -6 -7 16 1 26 20 26 7 0 13 -9 13 -20z m-12 -63 c2 -10 -3 -17 -12
-17 -10 0 -16 9 -16 21 0 24 23 21 28 -4z m-28 -67 c0 -5 -4 -10 -10 -10 -5 0
-10 5 -10 10 0 6 5 10 10 10 6 0 10 -4 10 -10z"></path>
<path class="node" id="node35" d="M359 778 c-8 -14 -10 -50 -5 -107 3 -47 6 -89 6 -93 0 -12 31 -38 45
-38 7 0 41 23 74 51 49 41 61 56 61 80 0 23 -7 34 -32 47 -17 9 -48 32 -68 50
-44 37 -65 40 -81 10z m61 -54 c0 -8 -9 -14 -20 -14 -22 0 -28 26 -7 33 16 6
27 -1 27 -19z m66 -60 c-5 -13 -10 -14 -18 -6 -6 6 -8 18 -4 28 5 13 10 14 18
6 6 -6 8 -18 4 -28z m-56 -50 c0 -8 -7 -14 -15 -14 -15 0 -21 21 -9 33 10 9
24 -2 24 -19z"></path>
<path class="node" id="node36" d="M1943 188 c-18 -9 -23 -20 -23 -50 0 -21 4 -38 9 -38 25 0 68 71 55
91 -6 11 -13 11 -41 -3z"></path>
</g>
</svg>